HIERARCHY
ROOT Hips
{
	OFFSET	0.00	0.00	0.00
	CHANNELS 6 Xposition Yposition Zposition Zrotation Xrotation Yrotation
	JOINT LeftUpLeg
	{
		OFFSET	 0.126116	-0.065224	 0.014019
		CHANNELS 3 Zrotation Xrotation Yrotation
		JOINT LeftLeg
		{
			OFFSET	 0.000000	 0.569914	 0.000000
			CHANNELS 3 Zrotation Xrotation Yrotation
			JOINT LeftFoot
			{
				OFFSET	 0.000000	 0.544423	 0.000000
				CHANNELS 3 Zrotation Xrotation Yrotation
				JOINT LeftToeBase
				{
					OFFSET	 0.000000	 0.207117	 0.000000
					CHANNELS 3 Zrotation Xrotation Yrotation
					End Site
					{
						OFFSET	 0.000000	 0.207117	 0.000000
					}
				}
			}
		}
	}
	JOINT RightUpLeg
	{
		OFFSET	-0.124023	-0.065224	 0.008373
		CHANNELS 3 Zrotation Xrotation Yrotation
		JOINT RightLeg
		{
			OFFSET	 0.000000	 0.570047	 0.000000
			CHANNELS 3 Zrotation Xrotation Yrotation
			JOINT RightFoot
			{
				OFFSET	 0.000000	 0.544354	 0.000000
				CHANNELS 3 Zrotation Xrotation Yrotation
				JOINT RightToeBase
				{
					OFFSET	 0.000000	 0.207540	 0.000000
					CHANNELS 3 Zrotation Xrotation Yrotation
					End Site
					{
						OFFSET	 0.000000	 0.207540	 0.000000
					}
				}
			}
		}
	}
	JOINT Spine
	{
		OFFSET	 0.000184	 0.117403	 0.007763
		CHANNELS 3 Zrotation Xrotation Yrotation
		JOINT Spine1
		{
			OFFSET	 0.000000	 0.137269	 0.000000
			CHANNELS 3 Zrotation Xrotation Yrotation
			JOINT Spine2
			{
				OFFSET	 0.000000	 0.156879	 0.000000
				CHANNELS 3 Zrotation Xrotation Yrotation
				JOINT LeftShoulder
				{
					OFFSET	 0.080501	 0.160143	 0.002496
					CHANNELS 3 Zrotation Xrotation Yrotation
					JOINT LeftArm
					{
						OFFSET	 0.000000	 0.164363	 0.000000
						CHANNELS 3 Zrotation Xrotation Yrotation
						JOINT LeftForeArm
						{
							OFFSET	 0.000000	 0.364576	 0.000000
							CHANNELS 3 Zrotation Xrotation Yrotation
							JOINT LeftHand
							{
								OFFSET	 0.000000	 0.360812	 0.000000
								CHANNELS 3 Zrotation Xrotation Yrotation
								JOINT LeftHandIndex1
								{
									OFFSET	 0.000000	 0.086006	 0.000000
									CHANNELS 3 Zrotation Xrotation Yrotation
									JOINT LeftHandIndex2
									{
										OFFSET	 0.000000	 0.047237	 0.000000
										CHANNELS 3 Zrotation Xrotation Yrotation
										JOINT LeftHandIndex3
										{
											OFFSET	-0.004284	 0.038165	 0.000551
											CHANNELS 3 Zrotation Xrotation Yrotation
											End Site
											{
												OFFSET	-0.004284	 0.038165	 0.000551
											}
										}
									}
								}
							}
						}
					}
				}
				JOINT Neck
				{
					OFFSET	 0.000000	 0.176489	 0.000000
					CHANNELS 3 Zrotation Xrotation Yrotation
					JOINT Head
					{
						OFFSET	 0.000000	 0.077941	 0.001747
						CHANNELS 3 Zrotation Xrotation Yrotation
						End Site
						{
							OFFSET	 0.000000	 0.077941	 0.001747
						}
					}
				}
				JOINT RightShoulder
				{
					OFFSET	-0.080363	 0.159706	-0.000306
					CHANNELS 3 Zrotation Xrotation Yrotation
					JOINT RightArm
					{
						OFFSET	 0.000000	 0.164196	 0.000000
						CHANNELS 3 Zrotation Xrotation Yrotation
						JOINT RightForeArm
						{
							OFFSET	 0.000000	 0.365611	 0.000000
							CHANNELS 3 Zrotation Xrotation Yrotation
							JOINT RightHand
							{
								OFFSET	 0.000000	 0.360648	 0.000000
								CHANNELS 3 Zrotation Xrotation Yrotation
								JOINT RightHandIndex1
								{
									OFFSET	 0.000000	 0.069977	 0.000000
									CHANNELS 3 Zrotation Xrotation Yrotation
									JOINT RightHandIndex2
									{
										OFFSET	 0.000000	 0.052305	 0.000000
										CHANNELS 3 Zrotation Xrotation Yrotation
										JOINT RightHandIndex3
										{
											OFFSET	 0.009002	 0.042196	 0.000782
											CHANNELS 3 Zrotation Xrotation Yrotation
											End Site
											{
												OFFSET	 0.009002	 0.042196	 0.000782
											}
										}
									}
								}
							}
						}
					}
				}
			}
		}
	}
}
MOTION
Frames:    8
Frame Time: 0.03333334
-0.044414	 1.242660	-1.190962	-2.461125	 1.262151	-174.231000	 167.640700	 7.800849	 9.593946	 4.173347	-28.657000	 6.081127	 6.345874	 76.605960	 1.220832	 1.515584	 31.281350	-2.813213	-177.726300	 29.870320	-8.253170	-5.155894	-50.009270	 6.847300	 10.889890	 65.857510	-7.405604	-1.669969	 33.154510	 2.886905	-1.410125	 8.717216	-10.703370	 4.019196	 2.951821	-4.868288	-4.050280	-3.062745	 11.253700	-121.357800	 7.464612	 94.055910	 26.356590	 47.049510	-8.020557	 7.200264	-0.370667	-0.073725	 0.864701	-23.036640	-21.053330	 4.629481	 18.873930	-1.657795	-5.863905	 21.486120	 2.375356	 5.332184	 4.355385	-0.168759	-0.169123	-5.013078	-0.141243	-2.139785	-2.438003	-0.138261	 118.418200	-0.037506	-90.814970	 12.332960	 55.087740	-15.749310	-16.621740	-0.644123	-0.022398	-2.168439	 2.842953	-41.227580	-2.418871	 25.849420	 1.326018	 15.818680	 44.841780	-11.788020	-8.529570	 23.846870	-1.218098
-0.044198	 1.241290	-1.203307	-2.497351	 1.034763	-174.021300	 167.590400	 7.503042	 9.802792	 4.202488	-28.937070	 6.266070	 7.799159	 77.164480	-0.165965	 1.529806	 31.457910	-2.819929	-178.275100	 31.427050	-7.530408	-5.145911	-49.601260	 7.009912	 13.524870	 67.614010	-9.139461	-1.676169	 33.228570	 2.890010	-1.378861	 8.237044	-10.724040	 3.965595	 3.927350	-4.898637	-3.962497	-4.501559	 10.951950	-121.353300	 7.641354	 94.143670	 22.145930	 47.304390	-4.430382	 13.673980	-0.695936	-0.070025	-0.518458	-25.001950	-20.188470	 4.652319	 18.948810	-1.669986	-5.863707	 21.551910	 2.382618	 5.335009	 4.421553	-0.167558	-0.172355	-5.028106	-0.126378	-2.090782	-2.668449	-0.225153	 118.393700	-0.141747	-90.766070	 14.335750	 55.185440	-17.063450	-16.389700	-0.632373	 0.037144	-3.258345	 2.502684	-41.001950	-2.336423	 25.233680	 1.282171	 15.665210	 44.240830	-11.550360	-8.531680	 23.228780	-1.177002
-0.041400	 1.229742	-1.314553	-2.845406	-0.269058	-172.880900	 167.929900	 2.624273	 10.565310	 4.092758	-28.300760	 7.326896	 21.269620	 81.105340	-13.084770	 1.608932	 32.428690	-2.858011	 176.433000	 39.612790	-2.282535	-3.205003	-36.631940	 9.724643	 23.420140	 66.639790	-14.516440	-1.710432	 33.635690	 2.907301	-1.313695	 6.480994	-10.493880	 3.359314	 7.152924	-4.677132	-3.263003	-8.882808	 8.332425	-121.333300	 8.613137	 94.626670	 21.420170	 43.941360	-1.723682	 30.299780	-1.468717	-0.062497	-3.657372	-30.421220	-13.279050	 4.778367	 19.360400	-1.737672	-5.862778	 21.913580	 2.422598	 5.350522	 4.785337	-0.161012	-0.190056	-5.110741	-0.044660	-1.805191	-3.423882	-0.897340	 118.260500	-0.715214	-90.497960	 21.729860	 55.629350	-21.283910	-11.265170	-0.419968	 0.398693	-8.740460	 0.534100	-38.146770	-1.898625	 21.845340	 1.061577	 14.905540	 40.927390	-10.320690	-8.534709	 19.828540	-0.954383
 0.005249	 1.222644	-2.109218	 0.490358	 3.415140	-173.538400	 174.708600	 12.077000	 1.100172	 21.900650	-70.437100	 21.553520	-0.768388	 66.857920	 6.943589	 2.091670	 37.619920	-2.923496	-171.059200	 20.628720	-11.373240	-2.541748	-30.531130	 2.516804	-14.703180	 67.089440	 13.686320	-1.499743	 31.073960	 2.804510	 2.573262	 6.846139	-1.718025	-1.151916	 7.591003	 1.596944	 1.633377	-10.094310	-8.300180	-120.246900	 7.599615	 94.031940	 18.072830	 49.829980	-3.688213	 8.411260	-0.266197	-2.456707	 24.866540	-3.581429	 24.274290	 4.962027	 23.816880	-2.092285	-5.879804	 27.046290	 3.002332	 5.633342	 11.529830	-0.056825	 0.067957	-4.902401	-0.188916	-1.821198	-2.185755	-4.628027	 119.967800	-0.806071	-90.505340	 18.467970	 50.442850	-15.530810	-24.543060	-0.808668	 2.258478	-4.919673	-4.876160	 6.443396	-2.353195	 16.715180	 1.307402	 14.038000	 36.213350	-8.765091	-8.504446	 13.543190	-0.553346
 0.007121	 1.235617	-2.253644	 0.174215	 3.111606	-175.631500	 174.722600	 26.567660	-1.445707	 24.121270	-72.030250	 21.513990	-9.251779	 68.663920	 14.808230	 1.504359	 31.141520	-2.807943	-170.408500	 13.403530	-11.953980	-2.542735	-30.540860	-0.004845	-30.373560	 71.252170	 27.575430	-1.583975	 32.114820	 2.844583	 1.840567	 7.022817	 1.916018	-1.747850	 7.223996	 2.937164	 2.049430	-9.382590	-9.412143	-120.128400	 6.699637	 93.586830	 6.424577	 52.544180	 3.804788	 8.838837	-0.264133	-2.798049	 21.027140	-1.319487	 32.851140	 4.936405	 25.410810	-2.115795	-5.895977	 28.536710	 3.176071	 5.699038	 13.116550	-0.036925	 0.115601	-4.847177	-0.335704	-2.078415	-2.392116	-5.373945	 119.884800	-0.005164	-90.884640	 9.879563	 49.329640	-12.095740	-32.973020	-1.080849	 2.443429	-0.864899	-10.603920	 14.176010	-2.611143	 18.562780	 1.432254	 14.353870	 38.073800	-9.355461	-8.516406	 15.146170	-0.654786
 0.005031	 1.244662	-2.403824	-1.063035	 1.763654	-177.884700	 175.554400	 34.940020	-5.736268	 8.984724	-49.677890	 3.909882	-20.925660	 65.191060	 24.512740	 1.373816	 29.486590	-2.748497	-171.905300	 5.325955	-12.309840	-2.242335	-27.489710	-2.492636	-51.339970	 73.405980	 45.612870	-1.845480	 35.204870	 2.977527	 0.108195	 6.637269	 5.678484	-2.299422	 7.412830	 4.322762	 2.276034	-9.028607	-10.131740	-120.152800	 5.462848	 92.990360	-7.039083	 54.586450	 13.081020	 9.342304	-0.263962	-3.167321	 16.423050	-2.006686	 42.066180	 4.980858	 27.429460	-2.132825	-5.925021	 30.463670	 3.405275	 5.774461	 14.941440	-0.016199	 0.147482	-4.823093	-0.528115	-2.545346	-2.832316	-6.050128	 119.560000	 0.977254	-91.337470	-2.111322	 45.793250	-7.397152	-42.781500	-1.365218	 2.579788	 3.995063	-16.624140	 19.265810	-2.845581	 19.580390	 1.528740	 14.566880	 39.229110	-9.736957	-8.523344	 16.317770	-0.729208
 0.001035	 1.237796	-2.542737	-1.986637	 0.760350	-179.934800	 175.705200	 24.745880	-8.705663	 0.674135	-5.072614	-4.575471	-20.965160	 52.555930	 22.172750	 1.278996	 28.251230	-2.707529	-173.176000	-0.718111	-12.803930	-2.241424	-27.480140	-5.371922	-66.684430	 72.756540	 59.998150	-2.305362	 40.083830	 3.222167	-1.266285	 6.169093	 8.616879	-2.753469	 7.201190	 5.260652	 2.487977	-8.428604	-10.582510	-120.062400	 4.343118	 92.443160	-19.533750	 55.614780	 21.261870	 9.818179	-0.264001	-3.513483	 11.763790	-4.717324	 49.009980	 4.936972	 28.558090	-2.076164	-5.958894	 32.172510	 3.613462	 5.852841	 16.838040	 0.002886	 0.149875	-4.853143	-0.679366	-2.778321	-3.131336	-6.625886	 119.383000	 1.687577	-91.663890	-15.738310	 42.596710	-0.757000	-40.416090	-1.277193	 2.991292	 1.998547	-21.329380	 21.060280	-2.989251	 20.600580	 1.588919	 14.804270	 40.435920	-10.148810	-8.529013	 17.563320	-0.808674
-0.007266	 1.196314	-2.720674	-2.308617	 0.342295	 177.905100	 175.717000	 33.511790	-6.224463	 0.670643	-5.046487	-9.115706	-34.130570	 56.105270	 31.283920	 1.241762	 27.758570	-2.691965	-173.223200	-5.257441	-13.019340	-3.188090	-36.487230	-9.284761	-72.712070	 70.381730	 69.385520	-3.709411	 51.583000	 4.117117	-2.164868	 5.559305	 11.242550	-3.151011	 6.351597	 6.069825	 2.818544	-7.190809	-11.046200	-119.602800	 3.165937	 91.852750	-37.517670	 57.331610	 32.194550	 10.483080	-0.269538	-3.917359	 8.832692	-11.608450	 54.852790	 4.635844	 27.608860	-1.797185	-6.000194	 33.855100	 3.823624	 5.966163	 19.571980	 0.025936	 0.071263	-5.042461	-0.768014	-2.441586	-3.172278	-7.258627	 119.536700	 1.879646	-91.764020	-28.817710	 43.120570	 6.122139	-32.469830	-1.004382	 3.586161	-0.177457	-28.065820	 19.570220	-2.922037	 21.972190	 1.556159	 15.179140	 42.192050	-10.774890	-8.534152	 19.432450	-0.928780
